# AST/ASF file generated using VICON BodyLanguage
# -----------------------------------------------
:version 1.10
:name VICON
:units
  mass 1.0
  length 0.45
  angle deg
:documentation
   .ast/.asf automatically generated from VICON data using
   VICON BodyBuilder and BodyLanguage model FoxedUp or BRILLIANT.MOD
:root
   order TX TY TZ RX RY RZ
   axis XYZ
   position 0 0 0  
   orientation 0 0 0 
:bonedata
  begin
     id 1 
     name lhipjoint
     direction 0.635376 -0.686425 0.353719 
     length 2.47244 
     axis 0 0 0  XYZ
  end
  begin
     id 2 
     name lfemur
     direction 0.34202 -0.939693 0  
     length 7.25268  
     axis 0 0 20  XYZ
    dof rx ry rz
    limits (-160.0 20.0)
           (-70.0 70.0)
           (-60.0 70.0)
  end
  begin
     id 3 
     name ltibia
     direction 0.34202 -0.939693 0   
     length 7.6767   
     axis 0 0 20   XYZ
    dof rx
    limits (-10.0 170.0)
  end
  begin
     id 4 
     name lfoot
     direction 0.0803374 -0.220725 0.972022   
     length 2.22945   
     axis -90 7.62852e-016 20   XYZ
    dof rx rz
    limits (-45.0 90.0)
           (-70.0 20.0)
  end
  begin
     id 5 
     name ltoes
     direction 1.53579e-011 -4.21994e-011 1   
     length 1.11848   
     axis -90 7.62852e-016 20   XYZ
    dof rx
    limits (-90.0 20.0)
  end
  begin
     id 6 
     name rhipjoint
     direction -0.664428 -0.664335 0.342336   
     length 2.55466  
     axis 0 0 0  XYZ 
  end
  begin
     id 7 
     name rfemur
     direction -0.34202 -0.939693 0   
     length 6.83172   
     axis 0 0 -20   XYZ
    dof rx ry rz
    limits (-160.0 20.0)
           (-70.0 70.0)
           (-70.0 60.0)
  end
  begin
     id 8 
     name rtibia
     direction -0.34202 -0.939693 0   
     length 7.62692   
     axis 0 0 -20   XYZ
    dof rx
    limits (-10.0 170.0)
 end
 begin
     id 9 
     name rfoot
     direction -0.0949276 -0.260811 0.960711   
     length 2.19684  
     axis -90 -7.62852e-016 -20   XYZ
    dof rx rz
    limits (-45.0 90.0)
           (-20.0 70.0)
  end
  begin
     id 10 
     name rtoes
     direction -1.53543e-011 -4.2183e-011 1   
     length 1.09848   
     axis -90 -7.62852e-016 -20   XYZ
    dof rx
    limits (-90.0 20.0)
  end
  begin
     id 11 
     name lowerback
     direction 0.0118782 0.999815 -0.0151555   
     length 2.15772   
     axis 0 0 0   XYZ
    dof rx ry rz
    limits (-20.0 45.0)
           (-30.0 30.0)
           (-30.0 30.0)
  end
  begin
     id 12 
     name upperback
     direction 0.00130825 0.999065 0.0432113   
     length 2.14863   
     axis 0 0 0   XYZ
    dof rx ry rz
    limits (-20.0 45.0)
           (-30.0 30.0)
           (-30.0 30.0)
  end
  begin
     id 13 
     name thorax
     direction -0.00347005 0.998773 0.0494011   
     length 2.14936   
     axis 0 0 0   XYZ
    dof rx ry rz
    limits (-20.0 45.0)
           (-30.0 30.0)
           (-30.0 30.0)
  end
  begin
     id 14 
     name lowerneck
     direction -0.0262159 0.99424 0.103921   
     length 1.69373   
     axis 0 0 0   XYZ
    dof rx ry rz
    limits (-20.0 45.0)
           (-30.0 30.0)
           (-30.0 30.0)
  end
  begin
     id 15 
     name upperneck
     direction 0.0353511 0.977394 -0.20845   
     length 1.70857   
     axis 0 0 0   XYZ
    dof rx ry rz
    limits (-20.0 45.0)
           (-30.0 30.0)
           (-30.0 30.0)
  end
  begin
     id 16
     name head
     direction 0.0139214 0.996594 -0.0812836  
     length 1.72777  
     axis 0 0 0   XYZ
    dof rx ry rz
    limits (-20.0 45.0)
           (-30.0 30.0)
           (-30.0 30.0)
  end
  begin
     id 17 
     name lclavicle
     direction 0.841247 0.537205 -0.0609508  
     length 3.55371  
     axis 0 0 0   XYZ
    dof ry rz
    limits (-20.0 10.0)
           (0.0 20.0)
  end
  begin
     id 18 
     name lhumerus
     direction 1 -4.48964e-011 1.60116e-018   
     length 4.91377   
     axis -180 -30 -90   XYZ
    dof rx ry rz
    limits (-60.0 90.0)
           (-90.0 90.0)
           (-90.0 90.0)
  end
  begin
     id 19
     name lradius
     direction 1 -4.48989e-011 -8.93847e-027   
     length 3.00291   
     axis -180 -30 -90   XYZ
    dof rx
    limits (-10.0 170.0)
  end
  begin
     id 20
     name lwrist
     direction 1 -4.48932e-011 -7.31504e-027   
     length 1.50145   
     axis 5.74121e-015 90 90   XYZ
    dof ry
    limits (-180.0 0.0)
 end
  begin
     id 21 
     name lhand
     direction 1 -4.48971e-011 -1.46301e-026   
     length 0.450922   
     axis 9.33524e-015 90 90   XYZ
    dof rx rz
    limits (-90.0 90.0)
           (-45.0 45.0)
  end
  begin
     id 22 
     name lfingers
     direction 1 -4.49039e-011 -2.92602e-026   
     length 0.363545   
     axis 1.86705e-014 90 90   XYZ
    dof rx
    limits (0.0 90.0)
  end
  begin
     id 23
     name lthumb
     direction 0.707107 -6.34941e-011 0.707107   
     length 0.52198   
     axis -90 45 2.85299e-015   XYZ
    dof rx rz
    limits (-45.0 45.0)
           (-45.0 45.0)
  end
  begin
     id 24 
     name rclavicle
     direction -0.825079 0.56158 -0.0622297   
     length 3.39909  
     axis 0 0 0   XYZ 
    dof ry rz
    limits (-10.0 20.0)
           (-20.0 0.0)
  end
  begin
     id 25 
     name rhumerus
     direction -1 -4.48965e-011 1.61691e-027  
     length 4.86725   
     axis -180 30 90   XYZ
    dof rx ry rz
    limits (-90.0 60.0)
           (-90.0 90.0)
           (-90.0 90.0)
  end
  begin
     id 26 
     name rradius
     direction -1 -4.48964e-011 -2.25776e-027   
     length 3.17144   
     axis -180 30 90   XYZ
    dof rx
    limits (-10.0 170.0)
  end
  begin
     id 27 
     name rwrist
     direction -1 -4.48961e-011 -7.31504e-027   
     length 1.58572   
     axis 5.74121e-015 -90 -90   XYZ
    dof ry
    limits (-180.0 0.0)
  end
  begin
     id 28
     name rhand
     direction -1 -4.49013e-011 -1.46301e-026   
     length 0.419368   
     axis 9.33524e-015 -90 -90   XYZ
    dof rx rz
    limits (-90.0 90.0)
           (-45.0 45.0)
  end
  begin
     id 29
     name rfingers
     direction -1 -4.489e-011 -2.92602e-026   
     length 0.338105   
     axis 1.86705e-014 -90 -90   XYZ
    dof rx
    limits (0.0 90.0)
  end
  begin
     id 30
     name rthumb
     direction -0.707107 -6.35022e-011 0.707107   
     length 0.485453   
     axis -90 -45 -2.85299e-015   XYZ
    dof rx rz
    limits (-45.0 45.0)
           (-45.0 45.0)
  end
:hierarchy
  begin
    root lhipjoint rhipjoint lowerback
    lhipjoint lfemur
    lfemur ltibia
    ltibia lfoot
    lfoot ltoes
    rhipjoint rfemur
    rfemur rtibia
    rtibia rfoot
    rfoot rtoes
    lowerback upperback
    upperback thorax
    thorax lowerneck lclavicle rclavicle
    lowerneck upperneck
    upperneck head
    lclavicle lhumerus
    lhumerus lradius
    lradius lwrist
    lwrist lhand lthumb
    lhand lfingers
    rclavicle rhumerus
    rhumerus rradius
    rradius rwrist
    rwrist rhand rthumb
    rhand rfingers
  end

#!OML:ASF H:\Swim 2\Project 1\Capture day 1\Session 1\male.ASF
:FULLY-SPECIFIED
:DEGREES
627
root 1.95677 14.8361 11.3298 89.2553 -60.0697 7.36795
lowerback -23.7401 4.77838 9.69497
upperback -11.041 4.12242 -9.44368
thorax 2.43811 1.36347 -14.4693
lowerneck -11.6982 0.217115 -0.630626
upperneck 30.2421 -2.66178 8.43035
head 11.9865 -0.383601 2.88805
rclavicle 3.37934e-014 8.36883e-014
rhumerus -60.4629 23.8375 -61.1093
rradius 28.5728
rwrist -34.1954
rhand -8.86813 3.69817
rfingers 7.12502
rthumb 17.0734 -25.5716
lclavicle 3.37934e-014 8.36883e-014
lhumerus 184.252 -58.1277 -191.334
lradius 44.7769
lwrist 70.2988
lhand -47.8563 -32.2725
lfingers 7.12502
lthumb -20.5303 -3.33801
rfemur -46.117 -1.8811 27.3839
rtibia 74.3609
rfoot 44.6137 4.51545
rtoes 45.1086
lfemur -50.136 18.085 -25.9479
ltibia 85.7726
lfoot 28.0426 13.9659
ltoes 48.494
628
root 1.98362 14.8657 11.3313 89.6253 -60.2438 7.25901
lowerback -23.9378 4.746 9.7721
upperback -11.1891 4.0231 -9.47087
thorax 2.3473 1.28321 -14.5688
lowerneck -11.5204 0.522216 -0.708715
upperneck 31.4111 -2.45132 8.70144
head 12.4152 -0.266923 3.07336
rclavicle -3.12092e-014 -6.04305e-014
rhumerus -60.1449 24.3209 -56.964
rradius 28.2342
rwrist -34.0854
rhand -7.94185 3.45782
rfingers 7.12502
rthumb 17.9648 -25.7325
lclavicle -3.12092e-014 -6.04305e-014
lhumerus 184.532 -58.8029 -194.38
lradius 42.1883
lwrist 71.1915
lhand -47.6095 -29.7932
lfingers 7.12502
lthumb -20.2932 -0.833363
rfemur -45.7165 -2.27129 27.3392
rtibia 75.7591
rfoot 44.3225 4.25111
rtoes 45.3376
lfemur -49.5777 18.1835 -25.6724
ltibia 86.9333
lfoot 27.9157 14.1138
ltoes 48.643
629
root 2.01163 14.8924 11.3307 90.0535 -60.409 7.12378
lowerback -24.1387 4.80522 9.66359
upperback -11.3282 4.09834 -9.51855
thorax 2.31225 1.3076 -14.529
lowerneck -11.3392 0.667386 -0.714063
upperneck 32.42 -2.4636 8.95429
head 12.8026 -0.242508 3.20915
rclavicle -1.61016e-014 -3.45885e-014
rhumerus -60.0975 25.0797 -52.9986
rradius 28.3276
rwrist -34.6742
rhand -7.01192 3.06454
rfingers 7.12502
rthumb 18.8594 -26.0412
lclavicle -1.61016e-014 -3.45885e-014
lhumerus 183.593 -59.7817 -196.133
lradius 39.9369
lwrist 72.8626
lhand -46.969 -27.6274
lfingers 7.12502
lthumb -19.6775 1.39672
rfemur -45.3321 -2.64566 27.3132
rtibia 77.1322
rfoot 43.9753 3.98125
rtoes 45.4984
lfemur -49.0542 18.2694 -25.3828
ltibia 88.0678
lfoot 27.8815 14.1219
ltoes 48.7326
630
root 2.04049 14.9161 11.3277 90.531 -60.5645 6.97356
lowerback -24.3414 4.95055 9.36117
upperback -11.4598 4.34375 -9.58874
thorax 2.32778 1.43465 -14.3479
lowerneck -11.1577 0.6004 -0.61795
upperneck 33.2745 -2.77958 9.1825
head 13.1561 -0.338934 3.27395
rclavicle 4.57205e-014 -1.15891e-013
rhumerus -60.2708 26.1098 -49.2356
rradius 28.6914
rwrist -35.9503
rhand -6.09758 2.65079
rfingers 7.12502
rthumb 19.7386 -26.367
lclavicle 4.57205e-014 -1.15891e-013
lhumerus 181.298 -61.0496 -196.426
lradius 38.0376
lwrist 75.2074
lhand -45.9556 -25.9093
lfingers 7.12502
lthumb -18.703 3.21154
rfemur -44.9711 -3.01134 27.3113
rtibia 78.4736
rfoot 43.6005 3.69051
rtoes 45.686
lfemur -48.5764 18.3379 -25.0806
ltibia 89.1737
lfoot 27.937 13.9901
ltoes 48.773
631
root 2.07035 14.9371 11.3228 91.0557 -60.7033 6.81169
lowerback -24.5499 5.16488 8.91497
upperback -11.5889 4.72339 -9.68247
thorax 2.37875 1.64168 -14.0665
lowerneck -10.9674 0.350139 -0.364216
upperneck 33.9695 -3.35098 9.32459
head 13.4642 -0.533065 3.23586
rclavicle 1.39149e-014 8.15017e-014
rhumerus -60.495 27.2786 -45.5681
rradius 29.1597
rwrist -37.5854
rhand -5.19721 2.27659
rfingers 7.12502
rthumb 20.6039 -26.6499
lclavicle 1.39149e-014 8.15017e-014
lhumerus 177.629 -62.5331 -195.243
lradius 36.4719
lwrist 78.009
lhand -44.6696 -24.614
lfingers 7.12502
lthumb -17.4657 4.62133
rfemur -44.6367 -3.36987 27.3398
rtibia 79.7729
rfoot 43.1803 3.38331
rtoes 45.8065
lfemur -48.155 18.3941 -24.7634
ltibia 90.2495
lfoot 28.079 13.7089
ltoes 48.7378
632
root 2.10161 14.956 11.3176 91.6273 -60.8271 6.63315
lowerback -24.7573 5.4281 8.39607
upperback -11.7246 5.19195 -9.80041
thorax 2.43936 1.89918 -13.741
lowerneck -10.7461 -0.0333852 0.0731153
upperneck 34.5101 -4.0978 9.342
head 13.7106 -0.79111 3.08243
rclavicle 2.78299e-014 -1.02573e-013
rhumerus -60.5394 28.4112 -41.8193
rradius 29.6006
rwrist -39.168
rhand -4.25694 1.90443
rfingers 7.12502
rthumb 21.5072 -26.9215
lclavicle 2.78299e-014 -1.02573e-013
lhumerus 172.625 -64.0845 -192.634
lradius 35.1859
lwrist 80.98
lhand -43.3268 -23.5658
lfingers 7.12502
lthumb -16.1731 5.77947
rfemur -44.3297 -3.73197 27.3905
rtibia 81.0186
rfoot 42.7868 3.12558
rtoes 45.9783
lfemur -47.7892 18.4349 -24.4431
ltibia 91.2896
lfoot 28.2646 13.3614
ltoes 48.732
633
root 2.13458 14.973 11.313 92.2458 -60.9471 6.43618
lowerback -24.972 5.7225 7.84127
upperback -11.8698 5.71451 -9.94284
thorax 2.50067 2.18598 -13.4032
lowerneck -10.5078 -0.504101 0.70112
upperneck 34.9348 -4.94267 9.19469
head 13.8996 -1.08275 2.80715
rclavicle 6.36111e-015 1.1609e-013
rhumerus -60.3098 29.4365 -37.919
rradius 30.0079
rwrist -40.5432
rhand -3.29629 1.58659
rfingers 7.12502
rthumb 22.4296 -27.1311
lclavicle 6.36111e-015 1.1609e-013
lhumerus 166.314 -65.5325 -188.634
lradius 34.1345
lwrist 83.8784
lhand -42.1463 -22.5844
lfingers 7.12502
lthumb -15.0361 6.84966
rfemur -44.0486 -4.10438 27.4414
rtibia 82.2
rfoot 42.4528 2.94937
rtoes 46.2915
lfemur -47.4822 18.4615 -24.1423
ltibia 92.2885
lfoot 28.4389 13.0337
ltoes 48.8051
